<?xml version="1.0" encoding="utf-8"?>
<!-- Generator: Adobe Illustrator 22.1.0, SVG Export Plug-In . SVG Version: 6.00 Build 0)  -->
<svg version="1.1" id="Layer_1" xmlns="http://www.w3.org/2000/svg" xmlns:xlink="http://www.w3.org/1999/xlink" x="0px" y="0px"
	 viewBox="0 0 70 70" style="enable-background:new 0 0 70 70;" xml:space="preserve">
<style type="text/css">
	.st0{fill:none;stroke:#FFFFFF;stroke-width:3;stroke-miterlimit:10;}
	.st1{fill:#FFFFFF;}
</style>
<circle class="st0" cx="29.6" cy="40.3" r="25.6"/>
<path class="st1" d="M40.6,50.9c0,6.1-4.9,11-11,11s-11-4.9-11-11H40.6z"/>
<circle class="st1" cx="17.9" cy="36" r="4.1"/>
<circle class="st1" cx="40.6" cy="36" r="4.1"/>
<path class="st1" d="M50.3,10.5h14.3c0.8,0,1.5,0.7,1.5,1.5v0c0,0.8-0.7,1.5-1.5,1.5H50.3c-0.8,0-1.5-0.7-1.5-1.5v0
	C48.8,11.1,49.4,10.5,50.3,10.5z"/>
<path class="st1" d="M53.3,14.9h11.3c0.8,0,1.5,0.7,1.5,1.5v0c0,0.8-0.7,1.5-1.5,1.5H53.3c-0.8,0-1.5-0.7-1.5-1.5v0
	C51.8,15.6,52.5,14.9,53.3,14.9z"/>
<path class="st1" d="M55.5,19.3h9.1c0.8,0,1.5,0.7,1.5,1.5v0c0,0.8-0.7,1.5-1.5,1.5h-9.1c-0.8,0-1.5-0.7-1.5-1.5v0
	C54,20,54.7,19.3,55.5,19.3z"/>
</svg>
